<svg width="552" height="600" viewBox="0 0 552 600" fill="none" xmlns="http://www.w3.org/2000/svg">
<path d="M-48 0.106445C28.9707 63.2531 105.941 126.229 201.173 168.384C296.405 210.538 410.069 231.53 471.509 299.968C533.12 368.405 542.507 484.288 551.893 600H-48V0.106445Z" fill="#061E2F"/>
<path d="M-48 75.0293C19.4133 130.325 86.656 185.451 169.941 222.315C253.397 259.179 352.725 277.611 406.656 337.515C460.416 397.419 468.779 498.624 476.971 600H-48V75.0293Z" fill="#0D384F"/>
<path d="M-48 149.952C9.68533 197.397 67.3707 244.672 138.88 276.246C210.389 307.819 295.552 323.691 341.632 375.062C387.883 426.262 394.88 513.131 402.048 600H-48V149.952Z" fill="#11546F"/>
<path d="M-48 225.045C0.127998 264.469 48.256 303.893 107.648 330.346C167.211 356.629 238.208 369.77 276.779 412.437C315.179 455.274 321.152 527.637 326.955 600H-48V225.045Z" fill="#107291"/>
<path d="M-48 299.968C-9.6 331.541 28.9707 363.114 76.5867 384.277C124.203 405.269 181.035 415.85 211.755 449.984C242.475 484.288 247.253 542.144 252.032 600H-48V299.968Z" fill="#0892B2"/>
<path d="M-48 375.062C-19.1573 398.614 9.68534 422.336 45.3547 438.208C81.1947 453.91 123.691 461.931 146.901 487.531C169.941 513.131 173.525 556.651 176.939 600H-48V375.062Z" fill="#00B4D2"/>
<path d="M-48 449.983C-28.7147 465.855 -9.6 481.557 14.2933 492.138C38.1867 502.549 66.5173 507.839 81.8773 525.077C97.2373 542.143 99.6267 570.986 102.016 599.999H-48V449.983Z" fill="#00D6F0"/>
<path d="M-48 525.077C-38.4427 532.928 -28.7147 540.778 -16.9387 546.069C-4.992 551.36 9.17333 553.92 17.024 562.453C24.704 570.986 25.8987 585.493 26.9227 600H-48V525.077Z" fill="#00E8FF"/>
</svg>
