<svg width="552" height="600" viewBox="0 0 552 600" fill="none" xmlns="http://www.w3.org/2000/svg">
<path d="M600.001 599.893C513.985 552.619 427.969 505.173 333.761 461.141C239.553 417.109 137.323 376.32 80.4914 300.032C23.4888 223.744 11.7128 111.787 0.107422 0H600.001V599.893Z" fill="#061E2F"/>
<path d="M600 524.971C524.736 483.499 449.472 442.027 367.04 403.456C284.608 364.885 195.179 329.216 145.344 262.485C95.5093 195.755 85.2693 97.792 75.0293 0H600V524.971Z" fill="#0D384F"/>
<path d="M600.001 450.048C535.489 414.379 470.977 378.88 400.321 345.771C329.665 312.832 253.036 282.283 210.369 224.939C167.532 167.765 158.828 83.7973 149.953 0H600.001V450.048Z" fill="#11546F"/>
<path d="M600.002 374.955C546.242 345.429 492.482 315.733 433.602 288.256C374.722 260.608 310.892 235.179 275.223 187.563C239.724 139.776 232.386 69.9733 225.047 0H600.002V374.955Z" fill="#107291"/>
<path d="M600.001 300.032C556.993 276.309 513.985 252.587 466.881 230.571C419.777 208.555 368.747 188.075 340.246 150.016C311.745 111.787 305.942 55.9787 299.969 0H600.001V300.032Z" fill="#0892B2"/>
<path d="M600.001 224.939C567.745 207.189 535.489 189.44 500.161 172.885C464.833 156.331 426.604 141.141 405.1 112.469C383.767 83.7973 379.329 41.984 375.062 0H600.001V224.939Z" fill="#00B4D2"/>
<path d="M600 150.016C578.496 138.069 556.992 126.293 533.44 115.2C509.888 104.277 484.288 94.0373 470.123 74.9227C455.787 55.9787 452.886 27.9893 449.984 0H600V150.016Z" fill="#00D6F0"/>
<path d="M600.001 74.9227C589.249 69.12 578.497 63.1467 566.721 57.6853C554.945 52.0533 542.145 47.104 534.977 37.5467C527.979 27.9893 526.443 13.9947 525.078 0H600.001V74.9227Z" fill="#00E8FF"/>
</svg>
