<svg width="118" height="118" viewBox="0 0 118 118" fill="none" xmlns="http://www.w3.org/2000/svg">
<mask id="mask0_1210_447" style="mask-type:alpha" maskUnits="userSpaceOnUse" x="0" y="0" width="118" height="118">
<mask id="mask1_1210_447" style="mask-type:alpha" maskUnits="userSpaceOnUse" x="1" y="42" width="96" height="75">
<rect width="46.9575" height="6.99367" transform="matrix(-1 0 0 1 47.957 42.1602)" fill="#00E8FF"/>
<rect width="19.9819" height="9.32489" transform="matrix(-1 0 0 1 69.6035 64.8057)" fill="#00E8FF"/>
<path d="M79.5938 73.9648H72.9331V104.77H79.5938V73.9648Z" fill="#00E8FF"/>
<path d="M87.4208 89.9791H82.5918V79.4714L79.5945 73.9648V104.104H96.2461L87.4208 89.9791Z" fill="#00E8FF"/>
<path d="M64.1096 44.8242H59.7802V57.6459V64.8061H65.6082L67.9395 57.6459L64.1096 44.8242Z" fill="#00E8FF"/>
<path d="M55.617 44.8242H59.9464V57.6459V64.8061H54.1183L51.7871 57.6459L55.617 44.8242Z" fill="#00E8FF"/>
<circle cx="12.6552" cy="12.6552" r="12.6552" transform="matrix(-1 0 0 1 83.2578 91.4492)" fill="#00E8FF"/>
<circle cx="12.6552" cy="12.6552" r="12.6552" transform="matrix(-1 0 0 1 37.6328 91.4492)" fill="#00E8FF"/>
<path fill-rule="evenodd" clip-rule="evenodd" d="M37.965 49.1533H42.9607V73.9642H72.9336V104.104H4.32904V49.1533H10.9894V74.1314H37.965V49.1533Z" fill="#00E8FF"/>
</mask>
<g mask="url(#mask1_1210_447)">
<circle cx="57.781" cy="57.781" r="57.781" transform="matrix(-1 0 0 1 117.002 1.18066)" fill="#00E8FF"/>
</g>
<path d="M64.6709 29.6172C64.6709 33.247 64.1699 36.5075 63.3772 38.8391C62.9798 40.008 62.5205 40.9099 62.0404 41.5071C61.5557 42.1101 61.1181 42.3242 60.7577 42.3242C60.3972 42.3242 59.9596 42.1101 59.4749 41.5071C58.9949 40.9099 58.5354 40.008 58.1381 38.8391C57.3454 36.5075 56.8444 33.247 56.8444 29.6172C56.8444 25.9873 57.3454 22.7268 58.1381 20.3952C58.5354 19.2263 58.9949 18.3245 59.4749 17.7272C59.9596 17.1242 60.3972 16.9102 60.7577 16.9102C61.1181 16.9102 61.5557 17.1242 62.0404 17.7272C62.5205 18.3245 62.9798 19.2263 63.3772 20.3952C64.1699 22.7268 64.6709 25.9873 64.6709 29.6172Z" stroke="#00E8FF" stroke-width="2"/>
<path d="M62.9569 26.5466C65.9387 28.6286 68.3297 30.9081 69.7905 32.8929C70.5228 33.8879 71.0002 34.7805 71.2155 35.5151C71.4329 36.2569 71.3577 36.7371 71.1509 37.0315C70.9442 37.326 70.5174 37.5606 69.744 37.6107C68.978 37.6602 67.9736 37.5182 66.7855 37.1723C64.4154 36.4824 61.4496 35.0215 58.4677 32.9395C55.4859 30.8576 53.0949 28.5782 51.6341 26.5933C50.9018 25.5983 50.4244 24.7058 50.2091 23.9711C49.9918 23.2293 50.0669 22.7491 50.2737 22.4547C50.4805 22.1602 50.9073 21.9255 51.6807 21.8755C52.4466 21.826 53.451 21.968 54.6391 22.3139C57.0092 23.0038 59.975 24.4647 62.9569 26.5466Z" stroke="#00E8FF" stroke-width="2"/>
<path d="M58.4677 26.5466C61.4496 24.4647 64.4154 23.0038 66.7855 22.3139C67.9736 21.968 68.978 21.826 69.744 21.8755C70.5174 21.9255 70.9442 22.1602 71.1509 22.4547C71.3577 22.7491 71.4329 23.2293 71.2155 23.9711C71.0002 24.7058 70.5228 25.5983 69.7905 26.5933C68.3297 28.5782 65.9387 30.8576 62.9569 32.9395C59.975 35.0215 57.0092 36.4824 54.6391 37.1723C53.451 37.5182 52.4466 37.6602 51.6807 37.6107C50.9073 37.5606 50.4805 37.326 50.2737 37.0315C50.0669 36.7371 49.9918 36.2569 50.2091 35.5151C50.4244 34.7805 50.9018 33.8879 51.6341 32.8929C53.0949 30.9081 55.4859 28.6286 58.4677 26.5466Z" stroke="#00E8FF" stroke-width="2"/>
<path d="M51.0973 27.2849C51.9309 27.2849 52.6067 26.6111 52.6067 25.7799C52.6067 24.9486 51.9309 24.2748 51.0973 24.2748C50.2637 24.2748 49.5879 24.9486 49.5879 25.7799C49.5879 26.6111 50.2637 27.2849 51.0973 27.2849Z" fill="#00E8FF"/>
<path d="M62.8706 41.7338C63.7043 41.7338 64.38 41.06 64.38 40.2287C64.38 39.3975 63.7043 38.7236 62.8706 38.7236C62.037 38.7236 61.3613 39.3975 61.3613 40.2287C61.3613 41.06 62.037 41.7338 62.8706 41.7338Z" fill="#00E8FF"/>
<path d="M68.1534 23.3715C68.987 23.3715 69.6628 22.6977 69.6628 21.8664C69.6628 21.0352 68.987 20.3613 68.1534 20.3613C67.3198 20.3613 66.644 21.0352 66.644 21.8664C66.644 22.6977 67.3198 23.3715 68.1534 23.3715Z" fill="#00E8FF"/>
<path d="M60.0783 30.7466C61.1204 30.7466 61.9651 29.8706 61.9651 28.79C61.9651 27.7094 61.1204 26.8334 60.0783 26.8334C59.0363 26.8334 58.1916 27.7094 58.1916 28.79C58.1916 29.8706 59.0363 30.7466 60.0783 30.7466Z" fill="#00E8FF"/>
<path d="M62.0406 31.6498C62.8325 31.6498 63.4745 31.0096 63.4745 30.2199C63.4745 29.4302 62.8325 28.7901 62.0406 28.7901C61.2487 28.7901 60.6067 29.4302 60.6067 30.2199C60.6067 31.0096 61.2487 31.6498 62.0406 31.6498Z" fill="#00E8FF"/>
<path d="M59.9274 32.4021C60.8861 32.4021 61.6632 31.6272 61.6632 30.6713C61.6632 29.7153 60.8861 28.9404 59.9274 28.9404C58.9688 28.9404 58.1916 29.7153 58.1916 30.6713C58.1916 31.6272 58.9688 32.4021 59.9274 32.4021Z" fill="#00E8FF"/>
<circle cx="57.9295" cy="57.9295" r="58.4295" transform="matrix(-1 0 0 1 117 1)" stroke="#00E8FF"/>
</mask>
<g mask="url(#mask0_1210_447)">
<rect width="121.057" height="121.057" transform="matrix(-1 0 0 1 119.768 -1.7666)" fill="url(#paint0_linear_1210_447)"/>
</g>
<defs>
<linearGradient id="paint0_linear_1210_447" x1="-2.07527" y1="-2.76702" x2="121.057" y2="121.057" gradientUnits="userSpaceOnUse">
<stop stop-color="#00E8FF"/>
<stop offset="1" stop-color="#00CFFF"/>
</linearGradient>
</defs>
</svg>
